<svg width="202" height="110" viewBox="0 0 202 110" fill="none" xmlns="http://www.w3.org/2000/svg">
<line y1="4.8957" x2="201.672" y2="4.8957" stroke="#BDA6F2" stroke-width="0.139759"/>
<line y1="9.8603" x2="201.672" y2="9.8603" stroke="#BDA6F2" stroke-width="0.139759"/>
<line y1="14.824" x2="201.672" y2="14.824" stroke="#BDA6F2" stroke-width="0.139759"/>
<line y1="19.7869" x2="201.672" y2="19.7869" stroke="#BDA6F2" stroke-width="0.139759"/>
<line y1="24.7507" x2="201.672" y2="24.7507" stroke="#BDA6F2" stroke-width="0.139759"/>
<line y1="29.7136" x2="201.672" y2="29.7136" stroke="#BDA6F2" stroke-width="0.139759"/>
<line y1="34.6783" x2="201.672" y2="34.6783" stroke="#BDA6F2" stroke-width="0.139759"/>
<line y1="39.6403" x2="201.672" y2="39.6403" stroke="#BDA6F2" stroke-width="0.139759"/>
<line y1="44.6058" x2="201.672" y2="44.6058" stroke="#BDA6F2" stroke-width="0.139759"/>
<line y1="49.5704" x2="201.672" y2="49.5704" stroke="#BDA6F2" stroke-width="0.139759"/>
<line y1="54.5324" x2="201.672" y2="54.5324" stroke="#BDA6F2" stroke-width="0.139759"/>
<line y1="59.497" x2="201.672" y2="59.497" stroke="#BDA6F2" stroke-width="0.139759"/>
<line y1="64.4599" x2="201.672" y2="64.4599" stroke="#BDA6F2" stroke-width="0.139759"/>
<line y1="69.4245" x2="201.672" y2="69.4245" stroke="#BDA6F2" stroke-width="0.139759"/>
<line y1="74.3883" x2="201.672" y2="74.3883" stroke="#BDA6F2" stroke-width="0.139759"/>
<line y1="79.3529" x2="201.672" y2="79.3529" stroke="#BDA6F2" stroke-width="0.139759"/>
<line y1="84.3167" x2="201.672" y2="84.3167" stroke="#BDA6F2" stroke-width="0.139759"/>
<line y1="89.2805" x2="201.672" y2="89.2805" stroke="#BDA6F2" stroke-width="0.139759"/>
<line y1="94.2434" x2="201.672" y2="94.2434" stroke="#BDA6F2" stroke-width="0.139759"/>
<line y1="99.2071" x2="201.672" y2="99.2071" stroke="#BDA6F2" stroke-width="0.139759"/>
<line y1="104.17" x2="201.672" y2="104.17" stroke="#BDA6F2" stroke-width="0.139759"/>
<line y1="109.134" x2="201.672" y2="109.134" stroke="#BDA6F2" stroke-width="0.139759"/>
<line x1="190.561" y1="104.922" x2="190.561" y2="0.00119781" stroke="#BDA6F2" stroke-width="0.139759"/>
<line x1="179.38" y1="104.922" x2="179.38" y2="0.00119781" stroke="#BDA6F2" stroke-width="0.139759"/>
<line x1="168.2" y1="104.922" x2="168.2" y2="0.00119781" stroke="#BDA6F2" stroke-width="0.139759"/>
<line x1="157.019" y1="104.922" x2="157.019" y2="0.00119781" stroke="#BDA6F2" stroke-width="0.139759"/>
<line x1="145.838" y1="104.922" x2="145.838" y2="0.00119781" stroke="#BDA6F2" stroke-width="0.139759"/>
<line x1="134.658" y1="104.922" x2="134.658" y2="0.00119781" stroke="#BDA6F2" stroke-width="0.139759"/>
<line x1="123.477" y1="104.922" x2="123.477" y2="0.00119781" stroke="#BDA6F2" stroke-width="0.139759"/>
<line x1="112.296" y1="104.922" x2="112.296" y2="0.00119781" stroke="#BDA6F2" stroke-width="0.139759"/>
<line x1="101.116" y1="104.922" x2="101.116" y2="0.00119781" stroke="#BDA6F2" stroke-width="0.139759"/>
<line x1="89.9348" y1="104.922" x2="89.9348" y2="0.00119781" stroke="#BDA6F2" stroke-width="0.139759"/>
<line x1="78.7541" y1="104.922" x2="78.7541" y2="0.00119781" stroke="#BDA6F2" stroke-width="0.139759"/>
<line x1="67.5733" y1="104.922" x2="67.5733" y2="0.00119781" stroke="#BDA6F2" stroke-width="0.139759"/>
<line x1="56.3928" y1="104.922" x2="56.3928" y2="0.00119781" stroke="#BDA6F2" stroke-width="0.139759"/>
<line x1="45.212" y1="104.922" x2="45.212" y2="0.00119781" stroke="#BDA6F2" stroke-width="0.139759"/>
<line x1="34.0313" y1="104.922" x2="34.0313" y2="0.00119781" stroke="#BDA6F2" stroke-width="0.139759"/>
<line x1="22.8505" y1="104.922" x2="22.8505" y2="0.00119781" stroke="#BDA6F2" stroke-width="0.139759"/>
<line x1="11.6698" y1="104.922" x2="11.6698" y2="0.00119781" stroke="#BDA6F2" stroke-width="0.139759"/>
<line y1="104.853" x2="201.672" y2="104.853" stroke="#BDA6F2" stroke-width="0.139759"/>
</svg>
