<svg width="36" height="40" viewBox="0 0 36 40" fill="none" xmlns="http://www.w3.org/2000/svg">
<rect y="2" width="36" height="36" rx="8" fill="#040921"/>
<path d="M2 20C2 11.1635 9.16347 4 18 4C26.8365 4 34 11.1635 34 20C34 28.8365 26.8365 36 18 36C9.16347 36 2 28.8365 2 20Z" fill="#040921"/>
<path d="M14.7996 29.6C16.5669 29.6 17.9996 28.1673 17.9996 26.4V23.2H14.7996C13.0323 23.2 11.5996 24.6327 11.5996 26.4C11.5996 28.1673 13.0323 29.6 14.7996 29.6Z" fill="#0ACF83"/>
<path d="M11.5996 19.9999C11.5996 18.2326 13.0323 16.7999 14.7996 16.7999H17.9996V23.1999H14.7996C13.0323 23.1999 11.5996 21.7672 11.5996 19.9999Z" fill="#A259FF"/>
<path d="M11.5996 13.6C11.5996 11.8327 13.0323 10.4 14.7996 10.4H17.9996V16.8H14.7996C13.0323 16.8 11.5996 15.3673 11.5996 13.6Z" fill="#F24E1E"/>
<path d="M18 10.4H21.2C22.9673 10.4 24.4 11.8327 24.4 13.6C24.4 15.3673 22.9673 16.8 21.2 16.8H18V10.4Z" fill="#FF7262"/>
<path d="M24.4 19.9999C24.4 21.7672 22.9673 23.1999 21.2 23.1999C19.4327 23.1999 18 21.7672 18 19.9999C18 18.2326 19.4327 16.7999 21.2 16.7999C22.9673 16.7999 24.4 18.2326 24.4 19.9999Z" fill="#1ABCFE"/>
</svg>
