<svg width="36" height="40" viewBox="0 0 36 40" fill="none" xmlns="http://www.w3.org/2000/svg">
<rect y="2" width="36" height="36" rx="8" fill="#0077B5"/>
<path d="M2 20C2 11.1634 9.16344 4 18 4C26.8366 4 34 11.1634 34 20C34 28.8366 26.8366 36 18 36C9.16344 36 2 28.8366 2 20Z" fill="#0077B5"/>
<path fill-rule="evenodd" clip-rule="evenodd" d="M13.5458 13.8818C13.5458 14.9279 12.7584 15.7649 11.4941 15.7649H11.4709C10.2536 15.7649 9.46661 14.9279 9.46661 13.8818C9.46661 12.8136 10.2776 12 11.518 12C12.7584 12 13.5223 12.8136 13.5458 13.8818ZM13.3074 17.2519V28.1464H9.68145V17.2519H13.3074ZM26.3834 28.1463L26.3836 21.8998C26.3836 18.5535 24.5948 16.996 22.2088 16.996C20.2836 16.996 19.4217 18.0535 18.9404 18.7953V17.2522H15.3141C15.3619 18.2744 15.3141 28.1466 15.3141 28.1466H18.9404V22.0623C18.9404 21.7367 18.964 21.4119 19.0599 21.1787C19.3219 20.5283 19.9186 19.8548 20.9203 19.8548C22.2329 19.8548 22.7576 20.8538 22.7576 22.3178V28.1463H26.3834Z" fill="white"/>
</svg>
