<svg width="213" height="40" viewBox="0 0 213 40" fill="none" xmlns="http://www.w3.org/2000/svg">
<path d="M24.913 15.4069L16.5763 23.4358V25.2622C16.5763 27.4925 16.8068 28.6076 17.2678 28.6076C17.9977 28.6076 19.0991 28.5654 20.5718 28.481C22.0444 28.3966 23.1458 28.3544 23.8757 28.3544C24.0934 28.3544 24.4264 28.3665 24.8746 28.3906C25.0282 28.4027 25.6237 28.4448 26.661 28.5172C27.3782 28.5775 27.9736 28.6076 28.4475 28.6076C29.7665 28.6076 30.6501 28.1073 31.0983 27.1067C31.38 26.4798 31.5209 25.425 31.5209 23.9421C31.5209 23.5443 31.4889 23.2791 31.4249 23.1465C31.3096 22.9174 31.0535 22.8089 30.6565 22.821L27.2757 22.8933C26.1232 22.9174 25.3612 22.9295 24.9898 22.9295C24.3495 22.9415 23.991 22.9415 23.9141 22.9295C25.6814 21.0368 27.1156 19.5419 28.2169 18.4448C29.9842 16.6848 30.8678 15.7806 30.8678 15.7324C30.8678 14.9849 30.7846 14.141 30.6181 13.2007C30.4388 12.176 30.2147 11.3623 29.9458 10.7595C28.5371 10.6148 27.3269 10.5425 26.3153 10.5425C22.9729 10.5425 19.9827 10.6751 17.3446 10.9403C17.2038 13.0139 17.0821 14.4244 16.9797 15.1718C17.62 15.3406 18.6316 15.425 20.0147 15.425H21.2249C21.481 15.425 21.8908 15.4189 22.4542 15.4069C23.5812 15.3828 24.4008 15.3828 24.913 15.4069ZM16 25.5154V23.2188L22.6463 16.8174C22.5055 16.8294 22.2237 16.8294 21.8011 16.8174C19.6241 16.7691 18.145 16.6426 17.3638 16.4376L16.4802 15.6058C16.4674 15.6058 16.4226 15.5937 16.3458 15.5696C16.3842 15.1838 16.4162 14.8704 16.4418 14.6293L16.5571 13.3454C16.6211 12.6462 16.6659 12.164 16.6915 11.8987L16.8068 10.434C19.6625 10.1447 22.832 10 26.3153 10C27.3653 10 28.71 10.0844 30.3492 10.2532L30.4068 10.4159L31.2712 11.2116C31.9883 12.8149 32.3469 14.6233 32.3469 16.6365C32.3469 16.7932 31.4185 17.8119 29.5616 19.6926L26.9107 22.3689H27.0836C27.1348 22.3689 27.1925 22.3629 27.2565 22.3508L30.6373 22.2785C31.252 22.2664 31.681 22.4714 31.9243 22.8933L32.635 23.5624C32.8783 23.7914 33 24.2194 33 24.8463C33 26.4014 32.8463 27.5226 32.539 28.2098L32.5198 28.1917C31.9819 29.3972 30.9446 30 29.4079 30C28.8957 30 28.5627 29.994 28.409 29.9819L26.6226 29.8373C25.8799 29.777 25.2844 29.7468 24.8362 29.7468C24.1062 29.7468 23.0049 29.789 21.5322 29.8734C20.0595 29.9578 18.9582 30 18.2282 30C18.0362 30 17.8633 29.9277 17.7096 29.783L16.9797 29.0958C16.3266 28.8427 16 27.6492 16 25.5154ZM17.3254 29.1682L18.2282 30L17.3254 29.1501V29.1682Z" fill="#6832E3"/>
<g clip-path="url(#clip0_2_9263)">
<path d="M42.733 15.6682V12.9086H54.7414V15.043L47.0017 25.2404H54.9355V28H42.539V25.8656L50.2787 15.6682H42.733ZM66.9895 25.4345H67.3345V28H65.7822C64.2084 28 63.7125 27.2454 63.7341 26.189C62.958 27.4179 61.8369 28.1294 60.1122 28.1294C57.7191 28.1294 55.9944 26.9867 55.9944 24.8739C55.9944 22.524 57.7622 21.1873 61.0823 21.1873H63.2814V20.6483C63.2814 19.6566 62.5699 19.0099 61.2979 19.0099C60.1122 19.0099 59.3145 19.5488 59.1851 20.3681H56.2531C56.4687 18.2122 58.4521 16.7893 61.3842 16.7893C64.4887 16.7893 66.2781 18.169 66.2781 20.8208V24.7446C66.2781 25.3267 66.5152 25.4345 66.9895 25.4345ZM63.2814 23.4295V23.2139H61.0608C59.7888 23.2139 59.0558 23.7313 59.0558 24.6583C59.0558 25.4345 59.681 25.9303 60.6943 25.9303C62.2896 25.9303 63.2598 24.9386 63.2814 23.4295ZM76.5099 18.2984V12.9086H79.5497V28H76.898L76.5961 26.4693C75.8631 27.4179 74.7852 28.1294 73.1898 28.1294C70.2146 28.1294 68.0372 25.9519 68.0372 22.4378C68.0372 19.0099 70.2146 16.7893 73.1682 16.7893C74.6989 16.7893 75.7984 17.3929 76.5099 18.2984ZM73.8581 25.6501C75.5182 25.6501 76.553 24.3565 76.553 22.4809C76.553 20.5837 75.5182 19.2686 73.8581 19.2686C72.1981 19.2686 71.1417 20.5621 71.1417 22.4593C71.1417 24.3565 72.1981 25.6501 73.8581 25.6501ZM84.2346 28L80.6127 16.9186H83.825L86.0456 24.723L88.1368 16.9186H90.8748L92.9014 24.7446L95.1651 16.9186H98.2696L94.6261 28H91.3922L89.4519 21.3167L87.4685 28H84.2346ZM109.392 25.4345H109.737V28H108.185C106.611 28 106.115 27.2454 106.136 26.189C105.36 27.4179 104.239 28.1294 102.515 28.1294C100.121 28.1294 98.3968 26.9867 98.3968 24.8739C98.3968 22.524 100.165 21.1873 103.485 21.1873H105.684V20.6483C105.684 19.6566 104.972 19.0099 103.7 19.0099C102.515 19.0099 101.717 19.5488 101.588 20.3681H98.6555C98.8711 18.2122 100.855 16.7893 103.787 16.7893C106.891 16.7893 108.68 18.169 108.68 20.8208V24.7446C108.68 25.3267 108.918 25.4345 109.392 25.4345ZM105.684 23.4295V23.2139H103.463C102.191 23.2139 101.458 23.7313 101.458 24.6583C101.458 25.4345 102.083 25.9303 103.097 25.9303C104.692 25.9303 105.662 24.9386 105.684 23.4295ZM109.792 28L113.91 22.3515L109.986 16.9186H113.457L115.742 20.1956L118.092 16.9186H121.369L117.467 22.3515L121.585 28H118.114L115.57 24.529L113.047 28H109.792Z" fill="#201E1E"/>
</g>
<defs>
<clipPath id="clip0_2_9263">
<rect width="135" height="18" fill="white" transform="translate(33 11)"/>
</clipPath>
</defs>
</svg>
